<svg xmlns="http://www.w3.org/2000/svg" width="113" height="38" viewBox="0 0 113 38">
    <g fill="#FFF" fill-rule="evenodd">
        <path d="M28.664 2.79c5.4 3.341 9.003 9.351 9.003 16.21 0 10.493-8.432 19-18.834 19a18.65 18.65 0 0 1-6.411-1.13l6.304-10.353 2.815 4.623h4.577L18.726 19 8.897 35.143A19.025 19.025 0 0 1 0 19C0 8.507 8.432 0 18.833 0c2.207 0 4.325.383 6.292 1.086L18.901 11.31l-2.815-4.624h-4.577l7.392 12.14 9.763-16.034zM66.755 13.818l-.297.949c-.245 0-.482.038-.71.113-.228.076-.531.246-.91.51-.377.265-.91.713-1.598 1.346l-3.474 3.205 1.86 5.113c.19.502.345.86.464 1.072.12.213.303.387.552.52.249.135.594.202 1.037.202l-.276.948h-6.335l.286-.948c.443 0 .836-.052 1.18-.155.344-.103.516-.333.516-.69 0-.255-.068-.57-.204-.949l-1.175-3.144-2.493 2.32c-.484.453-.795.775-.935.963-.14.19-.21.418-.21.686 0 .344.15.591.45.742.3.151.63.227.991.227l-.296.948H49.16l.286-.948c.415 0 .861-.127 1.338-.381a7.65 7.65 0 0 0 1.293-.861c.385-.32.877-.751 1.476-1.294l3.74-3.443-1.696-4.577c-.184-.494-.332-.836-.445-1.025a.886.886 0 0 0-.454-.392c-.191-.072-.484-.108-.88-.108l.277-.949h5.967l-.296.949c-.484 0-.848.051-1.094.154-.245.103-.368.34-.368.712 0 .226.055.488.164.783l.92 2.515 2.299-2.113c.36-.337.6-.594.72-.773.12-.179.179-.344.179-.495 0-.522-.389-.783-1.165-.783l.266-.949h5.068zm13.75 3.546c0 .44-.076.87-.226 1.289-.15.42-.391.814-.725 1.185-.334.371-.777.694-1.328.97-.566.274-1.278.456-2.136.546-.858.089-1.665.134-2.421.134H72.33l-1.052 3.463c-.123.433-.184.736-.184.907 0 .371.143.63.429.773.286.145.575.217.868.217h.286l-.286.948h-5.906l.297-.948c.436 0 .77-.119 1.001-.356.232-.237.43-.64.593-1.21l2.636-8.742c.123-.399.184-.67.184-.815 0-.419-.147-.683-.44-.793a2.9 2.9 0 0 0-1.021-.165l.265-.949h5.671c.681 0 1.248.04 1.701.119.453.079.905.253 1.354.52 1.186.708 1.778 1.677 1.778 2.907zm-2.862-.525c0-.86-.233-1.407-.7-1.644-.466-.238-1-.356-1.599-.356h-.99l-1.717 5.628h1.236c1.09 0 1.887-.21 2.39-.629.24-.206.464-.465.675-.778.211-.313.382-.66.511-1.041.13-.381.194-.775.194-1.18zm10.868-3.268l-3.576 11.823c-.184.585-.276.949-.276 1.093 0 .117.028.21.082.278a.26.26 0 0 0 .215.104c.177 0 .422-.162.735-.485.314-.323.562-.69.746-1.103h.96a9.158 9.158 0 0 1-1.338 1.886c-.558.619-1.257.928-2.094.928-.511 0-.922-.142-1.232-.428a1.357 1.357 0 0 1-.465-1.036c0-.316.106-.834.317-1.556l2.616-8.597c.17-.564.255-.938.255-1.124 0-.24-.097-.398-.29-.474-.195-.075-.558-.113-1.089-.113l.245-.949h1.094c.47 0 .899-.017 1.287-.051.388-.034.76-.1 1.114-.196h.694zm12.187 11.751a7.367 7.367 0 0 1-.664 1.114 5.068 5.068 0 0 1-.818.886c-.3.254-.6.447-.904.577-.303.13-.618.196-.945.196-.715 0-1.173-.218-1.374-.654-.201-.437-.302-.957-.302-1.562-.545.653-1.083 1.185-1.614 1.598a2.887 2.887 0 0 1-1.819.618c-.402 0-.736-.111-1.001-.335a1.953 1.953 0 0 1-.588-.902 3.822 3.822 0 0 1-.189-1.216c0-.928.235-1.907.705-2.938a7.52 7.52 0 0 1 1.916-2.598c.807-.7 1.677-1.051 2.61-1.051.43 0 .767.086 1.012.258.245.171.414.364.506.577.092.213.172.45.24.711l.378-1.288h2.258l-1.9 6.288c-.137.453-.205.728-.205.824 0 .09.03.165.087.227a.266.266 0 0 0 .2.093c.442 0 .916-.474 1.42-1.423h.99zm-3.811-4.113c0-.336-.063-.625-.19-.866-.125-.24-.355-.36-.69-.36-.51 0-1.006.297-1.486.891-.48.595-.868 1.313-1.165 2.155-.296.842-.444 1.551-.444 2.128 0 .832.259 1.248.776 1.248.362 0 .731-.167 1.11-.5.377-.334.726-.779 1.046-1.335.334-.577.591-1.162.772-1.753.18-.59.27-1.127.27-1.608zm15.905-.206c0 1.196-.4 2.491-1.2 3.886-.8 1.395-1.83 2.71-3.086 3.943-1.257 1.234-2.563 2.232-3.919 2.995-1.355.763-2.54 1.144-3.555 1.144-.464 0-.859-.098-1.186-.294-.327-.196-.49-.48-.49-.85 0-.296.12-.538.358-.727a1.28 1.28 0 0 1 .817-.283c.245 0 .453.022.623.067.17.044.389.122.654.232.572.192.998.288 1.277.288a1.96 1.96 0 0 0 1.242-.428c.364-.285.662-.627.894-1.025.558-.99.838-2.385.838-4.185 0-.44-.014-.902-.041-1.387a29.568 29.568 0 0 0-.123-1.49 11.098 11.098 0 0 0-.235-1.401 1.661 1.661 0 0 0-.28-.598c-.134-.179-.285-.268-.455-.268-.532 0-.859.605-.981 1.814h-.838c.156-1.374.51-2.281 1.062-2.721.552-.44 1.084-.66 1.594-.66 1.029 0 1.732.562 2.11 1.685.378 1.124.567 2.462.567 4.015 0 1.285-.068 2.34-.204 3.165 1.213-1.43 1.867-2.216 1.962-2.36.313-.468.569-.923.766-1.366a3.21 3.21 0 0 0 .297-1.315c0-.336-.116-.8-.348-1.391-.238-.598-.357-1.035-.357-1.31 0-.33.086-.599.26-.809.174-.21.38-.314.618-.314.232 0 .452.076.66.227.207.15.376.373.505.665.13.292.194.644.194 1.056z"/>
    </g>
</svg>
